HIERARCHY
ROOT Hips
{
	OFFSET 0.000000 0.000000 0.000000
	CHANNELS 6 Xposition Yposition Zposition Zrotation Yrotation Xrotation 
	JOINT LHipJoint
	{
		OFFSET 0.000000 0.000000 0.000000
		CHANNELS 3 Zrotation Yrotation Xrotation
		JOINT LeftUpLeg
		{
			OFFSET 1.363060 -1.794630 0.839290
			CHANNELS 3 Zrotation Yrotation Xrotation
			JOINT LeftLeg
			{
				OFFSET 2.448110 -6.726130 0.000000
				CHANNELS 3 Zrotation Yrotation Xrotation
				JOINT LeftFoot
				{
					OFFSET 2.562200 -7.039590 0.000000
					CHANNELS 3 Zrotation Yrotation Xrotation
					JOINT LeftToeBase
					{
						OFFSET 0.157640 -0.433110 2.322550
						CHANNELS 3 Zrotation Yrotation Xrotation
						End Site
						{
							OFFSET 0.000000 0.000000 0.000000
						}
					}
				}
			}
		}
	}
	JOINT RHipJoint
	{
		OFFSET 0.000000 0.000000 0.000000
		CHANNELS 3 Zrotation Yrotation Xrotation
		JOINT RightUpLeg
		{
			OFFSET -1.305520 -1.794630 0.839290
			CHANNELS 3 Zrotation Yrotation Xrotation
			JOINT RightLeg
			{
				OFFSET -2.542530 -6.985550 0.000000
				CHANNELS 3 Zrotation Yrotation Xrotation
				JOINT RightFoot
				{
					OFFSET -2.568260 -7.056230 0.000000
					CHANNELS 3 Zrotation Yrotation Xrotation
					JOINT RightToeBase
					{
						OFFSET -0.164730 -0.452590 2.363150
						CHANNELS 3 Zrotation Yrotation Xrotation
						End Site
						{
							OFFSET 0.000000 0.000000 0.000000
						}
					}
				}
			}
		}
	}
	JOINT LowerBack
	{
		OFFSET 0.000000 0.000000 0.000000
		CHANNELS 3 Zrotation Yrotation Xrotation
		JOINT Spine
		{
			OFFSET 0.028270 2.035590 -0.193380
			CHANNELS 3 Zrotation Yrotation Xrotation
			JOINT Spine1
			{
				OFFSET 0.056720 2.048850 -0.042750
				CHANNELS 3 Zrotation Yrotation Xrotation
				JOINT Neck
				{
					OFFSET 0.000000 0.000000 0.000000
					CHANNELS 3 Zrotation Yrotation Xrotation
					JOINT Neck1
					{
						OFFSET -0.054170 1.746240 0.172020
						CHANNELS 3 Zrotation Yrotation Xrotation
						JOINT Head
						{
							OFFSET 0.104070 1.761360 -0.123970
							CHANNELS 3 Zrotation Yrotation Xrotation
							End Site
							{
								OFFSET 0.000000 0.000000 0.000000
							}
						}
					}
				}
				JOINT LeftShoulder
				{
					OFFSET 0.000000 0.000000 0.000000
					CHANNELS 3 Zrotation Yrotation Xrotation
					JOINT LeftArm
					{
						OFFSET 3.362410 1.200890 -0.311210
						CHANNELS 3 Zrotation Yrotation Xrotation
						JOINT LeftForeArm
						{
							OFFSET 4.983000 -0.000000 -0.000000
							CHANNELS 3 Zrotation Yrotation Xrotation
							JOINT LeftHand
							{
								OFFSET 3.483560 -0.000000 -0.000000
								CHANNELS 3 Zrotation Yrotation Xrotation
								JOINT LeftFingerBase
								{
									OFFSET 0.000000 0.000000 0.000000
									CHANNELS 3 Zrotation Yrotation Xrotation
									JOINT LeftHandIndex1
									{
										OFFSET 0.715260 -0.000000 -0.000000
										CHANNELS 3 Zrotation Yrotation Xrotation
										End Site
										{
											OFFSET 0.000000 0.000000 0.000000
										}
									}
								}
								JOINT LThumb
								{
									OFFSET 0.000000 0.000000 0.000000
									CHANNELS 3 Zrotation Yrotation Xrotation
									End Site
									{
										OFFSET 0.000000 0.000000 0.000000
									}
								}
							}
						}
					}
				}
				JOINT RightShoulder
				{
					OFFSET 0.000000 0.000000 0.000000
					CHANNELS 3 Zrotation Yrotation Xrotation
					JOINT RightArm
					{
						OFFSET -3.136600 1.374050 -0.404650
						CHANNELS 3 Zrotation Yrotation Xrotation
						JOINT RightForeArm
						{
							OFFSET -5.241900 -0.000000 -0.000000
							CHANNELS 3 Zrotation Yrotation Xrotation
							JOINT RightHand
							{
								OFFSET -3.444170 -0.000000 -0.000000
								CHANNELS 3 Zrotation Yrotation Xrotation
								JOINT RightFingerBase
								{
									OFFSET 0.000000 0.000000 0.000000
									CHANNELS 3 Zrotation Yrotation Xrotation
									JOINT RightHandIndex1
									{
										OFFSET -0.622530 -0.000000 -0.000000
										CHANNELS 3 Zrotation Yrotation Xrotation
										End Site
										{
											OFFSET 0.000000 0.000000 0.000000
										}
									}
								}
								JOINT RThumb
								{
									OFFSET 0.000000 0.000000 0.000000
									CHANNELS 3 Zrotation Yrotation Xrotation
									End Site
									{
										OFFSET 0.000000 0.000000 0.000000
									}
								}
							}
						}
					}
				}
			}
		}
	}
}
MOTION
Frames: 11
Frame Time: 0.008333
-0.824786 18.308690 5.859420 -1.251569 -1.594279 -0.844631 0.528410 3.868972 3.803487 -12.752595 -10.761326 -3.557055 0.955168 6.885382 22.767091 -0.514074 5.955142 -13.866244 8.406400 -16.410100 -54.013500 -4.091911 -4.301757 2.574251 19.622927 3.626572 9.147878 0.481857 1.031918 1.704797 0.122698 -6.216592 -16.759420 -0.159100 2.570200 -7.084300 5.850220 1.807938 -6.931264 -7.847588 2.058513 24.012397 -0.826749 1.300422 -13.681584 -2.433325 -3.444402 -23.081362 9.414467 -5.395488 25.172892 1.640900 -1.443000 8.535000 4.419082 -7.382333 -0.043469 -95.162601 6.950842 20.851498 23.002557 -32.434058 -5.800666 0.596153 -0.127025 13.927712 8.251062 -29.805839 -3.823700 -7.125000 0.000000 0.000000 -13.471700 0.598300 13.716300 -3.845950 9.011967 2.419388 97.724338 -11.583469 18.884279 -31.112945 39.502692 -8.589291 0.833419 -3.203940 20.209564 -5.727508 -30.098834 3.544700 7.125000 0.000000 0.000000 24.192600 -55.773400 -6.675400 
-0.824393 18.308984 5.855987 -1.278482 -1.583628 -0.855839 0.530732 3.868757 3.799930 -12.737699 -10.853935 -3.518202 0.954149 6.889807 22.776074 -0.517009 5.986437 -13.925835 8.378600 -16.390800 -53.915300 -4.090271 -4.298663 2.568562 19.650940 3.612667 9.150899 0.481888 1.031699 1.704760 0.126435 -6.226815 -16.741204 -0.160700 2.582700 -7.119100 5.867596 1.797277 -6.887921 -7.829708 2.044136 23.951602 -0.840497 1.291237 -13.698630 -2.415707 -3.445902 -23.094545 9.398278 -5.401629 25.237688 1.634800 -1.443900 8.546600 4.409435 -7.385150 -0.038080 -95.164955 6.992112 20.762881 23.039741 -32.448407 -5.778877 0.562944 -0.131661 14.188956 7.194403 -29.152779 -3.239100 -7.125000 0.000000 0.000000 -14.034700 1.366200 14.129900 -3.841580 9.015352 2.424558 97.697887 -11.583633 18.922260 -31.057039 39.437148 -8.549436 0.823395 -3.197115 20.272701 -5.841208 -29.867401 3.565500 7.125000 0.000000 0.000000 23.937600 -55.587200 -6.488400 
-0.830769 18.312417 5.841765 -1.253252 -1.362081 -0.706593 0.539348 3.849244 3.764394 -12.666617 -10.755850 -3.797304 0.962381 6.891670 22.760565 -0.482209 5.741706 -13.595044 8.384300 -16.394700 -53.935300 -4.088554 -4.295315 2.542580 19.655743 3.442318 8.951793 0.481229 1.027078 1.703201 0.128045 -6.222539 -16.712758 -0.152200 2.514000 -6.928500 5.707989 1.705922 -6.721926 -7.830209 1.914165 23.571270 -0.722110 1.249459 -13.732980 -2.270683 -3.417509 -23.114052 9.187431 -5.364561 25.374517 1.582000 -1.440300 8.553100 4.350587 -7.384202 -0.004887 -95.140675 7.024544 20.684800 23.047965 -32.419350 -5.760233 0.545110 -0.135273 14.316273 6.667295 -28.844523 -2.957800 -7.125000 0.000000 0.000000 -14.319100 1.729700 14.339800 -3.792172 9.028396 2.454369 97.611916 -11.577383 19.013922 -30.985824 39.353580 -8.510817 0.814757 -3.194480 20.265460 -5.939473 -29.785786 3.596100 7.125000 0.000000 0.000000 23.795100 -55.528200 -6.411600 
-0.848228 18.321833 5.807534 -1.200237 -0.775775 -0.179305 0.571092 3.789391 3.653692 -12.450063 -10.315620 -4.774356 0.991931 6.913359 22.756542 -0.393521 5.073582 -12.590104 8.446700 -16.438200 -54.156300 -4.078195 -4.283443 2.466649 19.687010 3.025977 8.309333 0.480471 1.012765 1.698020 0.127637 -6.225680 -16.707487 -0.134600 2.364500 -6.514100 5.289001 1.492726 -6.345491 -7.742612 1.585172 22.463587 -0.467755 1.151430 -13.732216 -2.165724 -3.387280 -23.138308 9.042880 -5.346432 25.677342 1.550000 -1.435400 8.566900 4.182893 -7.394092 0.087967 -95.060636 7.090040 20.641917 23.052224 -32.352928 -5.751970 0.543273 -0.137971 14.304934 6.626397 -28.903433 -2.943600 -7.125000 0.000000 0.000000 -14.343400 1.680100 14.378900 -3.619950 9.069189 2.548673 97.502488 -11.686933 19.011574 -31.022865 39.333498 -8.530430 0.812764 -3.192066 20.279116 -5.939093 -29.886869 3.607600 7.125000 0.000000 0.000000 23.865600 -55.621200 -6.487400 
-0.848326 18.322324 5.804297 -1.216969 -0.779873 -0.174137 0.577763 3.788751 3.647456 -12.432630 -10.250716 -4.815045 0.992946 6.914236 22.756489 -0.399396 5.079178 -12.528734 8.464500 -16.450500 -54.219200 -4.073593 -4.281137 2.463072 19.701466 3.033228 8.298727 0.480631 1.012087 1.697849 0.124928 -6.222769 -16.726719 -0.129300 2.317700 -6.384500 5.284265 1.496361 -6.317191 -7.686291 1.585093 22.413095 -0.488452 1.153549 -13.739368 -2.193750 -3.405086 -23.162618 9.087226 -5.376918 25.725450 1.558500 -1.443200 8.578200 4.166058 -7.395624 0.091907 -95.053478 7.102227 20.672333 23.068638 -32.368995 -5.759065 0.542256 -0.140104 14.329333 6.575347 -28.945176 -2.922500 -7.125000 0.000000 0.000000 -14.373600 1.647100 14.419900 -3.607899 9.074125 2.559949 97.533174 -11.755062 18.913554 -31.101344 39.398822 -8.570558 0.816366 -3.191449 20.383544 -5.857895 -29.946579 3.582000 7.125000 0.000000 0.000000 23.981400 -55.667200 -6.548900 
-0.847443 18.322422 5.801061 -1.261304 -0.803454 -0.211521 0.589457 3.793634 3.645960 -12.404226 -10.228989 -4.779609 0.991750 6.913151 22.753276 -0.404525 5.103971 -12.541857 8.469300 -16.453800 -54.236000 -4.063600 -4.276446 2.460896 19.738522 3.044021 8.334020 0.480233 1.012150 1.698119 0.123371 -6.207201 -16.714076 -0.127000 2.297300 -6.328100 5.296038 1.500208 -6.242876 -7.570709 1.588962 22.395606 -0.544969 1.154557 -13.786202 -2.209678 -3.430461 -23.213936 9.080912 -5.409742 25.776667 1.553100 -1.457100 8.591200 4.143779 -7.392961 0.095378 -95.031980 7.125602 20.740193 23.090877 -32.393774 -5.768217 0.540623 -0.140496 14.357281 6.534665 -28.942313 -2.903000 -7.125000 0.000000 0.000000 -14.396000 1.654800 14.441900 -3.612794 9.071870 2.565877 97.549604 -11.777939 18.809369 -31.119279 39.412159 -8.578890 0.820803 -3.190789 20.478714 -5.738726 -29.957031 3.532900 7.125000 0.000000 0.000000 24.102500 -55.661900 -6.581700 
-0.828317 18.312712 5.833134 -1.325686 -1.447645 -0.801811 0.575664 3.861995 3.770128 -12.646365 -10.654395 -3.750917 0.961827 6.886471 22.759363 -0.511506 5.847075 -13.563722 8.420600 -16.420100 -54.063900 -4.054168 -4.292376 2.557946 19.689925 3.511646 9.023418 0.480594 1.027129 1.703155 0.125524 -6.203410 -16.702820 -0.148700 2.484700 -6.847300 5.632316 1.719181 -6.726480 -7.474330 1.908627 23.698360 -0.816559 1.258197 -13.783927 -2.241367 -3.454828 -23.282981 9.042203 -5.397708 25.510745 1.542400 -1.463000 8.598500 4.296665 -7.370807 -0.013447 -95.136854 6.999430 20.804787 23.083866 -32.460766 -5.774502 0.540759 -0.140107 14.327582 6.476189 -28.905165 -2.871100 -7.125000 0.000000 0.000000 -14.428700 1.697000 14.465700 -3.835879 9.029309 2.462214 97.617209 -11.640949 18.842799 -31.093443 39.454588 -8.575241 0.822815 -3.198002 20.479407 -5.731735 -30.002905 3.536700 7.125000 0.000000 0.000000 24.131100 -55.697400 -6.611500 
-0.824687 18.310358 5.837842 -1.342051 -1.588262 -0.956114 0.581788 3.878540 3.797231 -12.718734 -10.798960 -3.481683 0.952398 6.876842 22.752945 -0.540504 6.043336 -13.821321 8.414800 -16.416000 -54.043400 -4.042738 -4.295389 2.581136 19.672801 3.609551 9.190455 0.481347 1.030140 1.703900 0.136858 -6.257168 -16.694231 -0.170300 2.658500 -7.329300 5.656621 1.749519 -6.821326 -7.364129 1.948367 23.985334 -0.887133 1.271807 -13.789128 -2.312491 -3.463171 -23.305768 9.090031 -5.396944 25.462029 1.559900 -1.461600 8.604100 4.319817 -7.365358 -0.036476 -95.174559 6.997876 20.830577 23.121524 -32.516412 -5.791388 0.539461 -0.135837 14.256205 6.437761 -28.821096 -2.846100 -7.125000 0.000000 0.000000 -14.447400 1.779500 14.463700 -3.888772 9.017494 2.439874 97.591082 -11.605611 18.925893 -31.071956 39.449981 -8.572427 0.821208 -3.202445 20.418718 -5.777050 -30.106552 3.568100 7.125000 0.000000 0.000000 24.153300 -55.792500 -6.675100 
-0.825766 18.310946 5.831957 -1.321099 -1.573083 -0.978846 0.577706 3.878907 3.798329 -12.732685 -10.827209 -3.457643 0.949430 6.871103 22.735256 -0.535192 6.027305 -13.837748 8.387600 -16.397000 -53.946900 -4.046399 -4.294999 2.578901 19.656511 3.591718 9.194952 0.481766 1.030461 1.703845 0.146396 -6.298009 -16.676542 -0.177900 2.716800 -7.491200 5.652659 1.736839 -6.770644 -7.402039 1.941079 23.979859 -0.876553 1.266934 -13.818553 -2.356874 -3.464598 -23.336084 9.177400 -5.407808 25.464906 1.583200 -1.458400 8.609400 4.329405 -7.362181 -0.033240 -95.153717 7.012617 20.912301 23.157763 -32.555222 -5.806459 0.539530 -0.130897 14.170653 6.456007 -28.758254 -2.850200 -7.125000 0.000000 0.000000 -14.434800 1.834500 14.435600 -3.881879 9.010505 2.438212 97.556541 -11.574189 18.995911 -31.057798 39.442715 -8.571509 0.824361 -3.205734 20.344700 -5.744772 -30.221252 3.566800 7.125000 0.000000 0.000000 24.259100 -55.886500 -6.763500 
-0.830278 18.313889 5.818618 -1.247393 -1.413671 -0.861053 0.565177 3.860636 3.768750 -12.720015 -10.723920 -3.685076 0.952862 6.871885 22.715093 -0.519665 5.885183 -13.579376 8.383800 -16.394400 -53.933500 -4.063971 -4.292273 2.550937 19.619374 3.472589 9.036005 0.481242 1.027192 1.702914 0.142885 -6.278472 -16.672242 -0.165800 2.623000 -7.230800 5.604533 1.692988 -6.601543 -7.575903 1.894165 23.651019 -0.770650 1.251864 -13.844839 -2.332894 -3.450175 -23.280106 9.198357 -5.403381 25.454745 1.587800 -1.455600 8.586000 4.314568 -7.366282 -0.006826 -95.107073 7.027282 20.964439 23.164871 -32.545061 -5.805559 0.538284 -0.129985 14.158261 6.439377 -28.729309 -2.840300 -7.125000 0.000000 0.000000 -14.442800 1.863800 14.436400 -3.816065 9.013562 2.459244 97.516443 -11.584045 19.029208 -31.059014 39.433212 -8.574744 0.827403 -3.206586 20.271732 -5.716073 -30.304785 3.563100 7.125000 0.000000 0.000000 24.343200 -55.954900 -6.830300 
-0.846168 18.322324 5.785465 -1.158543 -0.851448 -0.355260 0.571812 3.798295 3.655860 -12.539946 -10.356445 -4.577158 0.975566 6.891053 22.695442 -0.438270 5.282674 -12.678261 8.453700 -16.443000 -54.181000 -4.077975 -4.278156 2.460852 19.634771 3.065170 8.431036 0.480289 1.013518 1.698364 0.138456 -6.258177 -16.663209 -0.149300 2.489800 -6.861500 5.323308 1.510027 -6.154052 -7.713778 1.626724 22.458825 -0.508627 1.168860 -13.844428 -2.259992 -3.422385 -23.152384 9.143526 -5.394264 25.592170 1.574900 -1.455100 8.546700 4.178683 -7.387570 0.088560 -95.005472 7.110667 20.943862 23.156630 -32.467458 -5.791167 0.536182 -0.132009 14.191259 6.419145 -28.745562 -2.832500 -7.125000 0.000000 0.000000 -14.453900 1.852200 14.451300 -3.613204 9.047627 2.551601 97.422111 -11.714352 19.036458 -31.102525 39.411774 -8.591605 0.830941 -3.202040 20.177636 -5.689934 -30.367350 3.557400 7.125000 0.000000 0.000000 24.416400 -56.008300 -6.885000 
